<svg xmlns="http://www.w3.org/2000/svg" version="1.1" xmlns:xlink="http://www.w3.org/1999/xlink" xmlns:svgjs="http://svgjs.dev/svgjs" width="2000" height="1101" viewBox="0 0 2000 1101"><g transform="matrix(1,0,0,1,-1.2121212121212466,0.817650510339945)"><svg viewBox="0 0 396 218" data-background-color="#ffffff" preserveAspectRatio="xMidYMid meet" height="1101" width="2000" xmlns="http://www.w3.org/2000/svg" xmlns:xlink="http://www.w3.org/1999/xlink"><g id="tight-bounds" transform="matrix(1,0,0,1,0.2400000000000091,-0.1618914301292591)"><svg viewBox="0 0 395.52 218.32378771646358" height="218.32378771646358" width="395.52"><g><svg viewBox="0 0 447.832758045481 247.2" height="218.32378771646358" width="395.52"><g transform="matrix(1,0,0,1,207.11905542157433,0)"><svg viewBox="0 0 240.71370262390667 247.2" height="247.2" width="240.71370262390667"><g id="textblocktransform"><svg viewBox="0 0 240.71370262390667 247.2" height="247.2" width="240.71370262390667" id="textblock"><g><svg viewBox="0 0 240.71370262390667 247.2" height="247.2" width="240.71370262390667"><g transform="matrix(1,0,0,1,0,0)"><svg width="240.71370262390667" viewBox="1.75 -34.29999923706055 33.400001525878906 34.29999923706055" height="247.2" data-palette-color="#ba3b0a"><path d="M21.6-34.3Q25.65-34.3 28.7-32.98 31.75-31.65 33.45-29.18 35.15-26.7 35.15-23.4L35.15-23.4Q35.15-20.05 33.48-17.5 31.8-14.95 28.75-13.55 25.7-12.15 21.65-12.15L21.65-12.15 14.25-12.15 14.25-5.25 20.8-5.25 20.8 0 1.75 0 1.75-5.25 7.75-5.25 7.75-29.05 1.75-29.05 1.75-34.3 21.6-34.3ZM21.3-17.45Q24.45-17.45 26.53-18.8 28.6-20.15 28.6-23.5L28.6-23.5Q28.6-26.45 26.48-27.75 24.35-29.05 21.15-29.05L21.15-29.05 14.25-29.05 14.25-17.5 21.3-17.45Z" opacity="1" transform="matrix(1,0,0,1,0,0)" fill="#ba3b0a" class="wordmark-text-0" data-fill-palette-color="primary" id="text-0"></path></svg></g></svg></g></svg></g></svg></g><g transform="matrix(1,0,0,1,0,29.72928272357821)"><svg viewBox="0 0 148.76106822157433 187.74143455284357" height="187.74143455284357" width="148.76106822157433"><g><svg xmlns="http://www.w3.org/2000/svg" xmlns:xlink="http://www.w3.org/1999/xlink" version="1.1" x="0" y="0" viewBox="-250.70001220703125 140.98709106445312 63.399993896484375 80.01290893554688" enable-background="new -269 131 100 100" xml:space="preserve" height="187.74143455284357" width="148.76106822157433" class="icon-icon-0" data-fill-palette-color="accent" id="icon-0"><path d="M-200.1 163.7l-1-0.8c-1.2-1-3.1-0.6-3.8 0.8-0.3 0.7-0.6 7.7-0.6 8.9 0 0.2 0 0.6 0 0.7 0 1-0.9 1.8-1.9 1.6-0.8-0.1-1.4-0.9-1.4-1.7-0.1-12-3.7-20.4-10.5-26.7-4.1-3.8-9-7.2-10.5-4.6-0.4 0.7 0.2 2.2 0.9 4.1 1.4 4.3-2.9 11.2-9 18.1-5.7 6.5-12.8 14.5-12.8 26.4 0 16 15.1 30.5 31.7 30.5 16.6 0 31.7-14.5 31.7-30.5C-187.3 180.4-192.1 170.4-200.1 163.7zM-219 215.2c-7.2 0-13.1-5.9-13.1-13.1 0-3.6 1.4-6.8 3.8-9.2l7.2-8.6c1.1-1.3 3.2-1.3 4.3 0l7.2 8.6c2.3 2.4 3.8 5.6 3.8 9.2C-205.9 209.3-211.8 215.2-219 215.2z" fill="#e8772e" data-fill-palette-color="accent"></path></svg></g></svg></g></svg></g><defs></defs></svg><rect width="395.52" height="218.32378771646358" fill="none" stroke="none" visibility="hidden"></rect></g></svg></g></svg>